# WaveFront *.obj file (generated by Cinema 4D)

mtllib sfx_l.mtl

v -0.58499997854233 -0.10000000149012 0.10000000149012
v -0.58499997854233 0.10000000149012 0.10000000149012
v 0.58499997854233 -0.10000000149012 0.10000000149012
v 0.58499997854233 0.10000000149012 0.10000000149012
v 0.58499997854233 -0.10000000149012 -0.10000000149012
v 0.58499997854233 0.10000000149012 -0.10000000149012
v -0.58499997854233 -0.10000000149012 -0.10000000149012
v -0.58499997854233 0.10000000149012 -0.10000000149012
v 0.14226497709751 0.10000000149012 0.10000000149012
v -0.14226497709751 -0.10000000149012 0.10000000149012
v 0.20000000298023 0 0.10000000149012
v 0.20000000298023 0 -0.10000000149012
v 0.14226497709751 0.10000000149012 -0.10000000149012
v 0.14226497709751 0.10000000149012 0
v -0.20000000298023 0 -0.10000000149012
v -0.14226497709751 -0.10000000149012 0
v -0.20000000298023 0 0.10000000149012
v 0.14226497709751 -0.10000000149012 0
v -0.14226497709751 0.10000000149012 0.10000000149012
v 0.14226497709751 -0.10000000149012 0.10000000149012
v -0.14226497709751 0.10000000149012 0
v -0.14226497709751 -0.10000000149012 -0.10000000149012
v -0.14226497709751 0.10000000149012 -0.10000000149012
v 0.14226497709751 -0.10000000149012 -0.10000000149012
v 0.20000000298023 0 0
v -0.20000000298023 0 0
v 0 0.15000000596046 0
v 0 0.15000000596046 0.01999999955297
v 0 0.17499999701977 0.01499999966472
v 0 0.20000000298023 0.00999999977648
v 0 0.22499999403954 0.00499999988824
v 0 0.25 0
v 0.01999999955297 0.15000000596046 0
v 0.01499999966472 0.17499999701977 0
v 0.00999999977648 0.20000000298023 0
v 0.00499999988824 0.22499999403954 0
v 0 0.15000000596046 -0.01999999955297
v 0 0.17499999701977 -0.01499999966472
v 0 0.20000000298023 -0.00999999977648
v 0 0.22499999403954 -0.00499999988824
v -0.01999999955297 0.15000000596046 0
v -0.01499999966472 0.17499999701977 0
v -0.00999999977648 0.20000000298023 0
v -0.00499999988824 0.22499999403954 0
v 0 -0.15000000596046 0
v 0 -0.15000000596046 0.01999999955297
v 0 -0.17499999701977 0.01499999966472
v 0 -0.20000000298023 0.00999999977648
v 0 -0.22499999403954 0.00499999988824
v 0 -0.25 0
v -0.01999999955297 -0.15000000596046 0
v -0.01499999966472 -0.17499999701977 0
v -0.00999999977648 -0.20000000298023 0
v -0.00499999988824 -0.22499999403954 0
v 0 -0.15000000596046 -0.01999999955297
v 0 -0.17499999701977 -0.01499999966472
v 0 -0.20000000298023 -0.00999999977648
v 0 -0.22499999403954 -0.00499999988824
v 0.01999999955297 -0.15000000596046 0
v 0.01499999966472 -0.17499999701977 0
v 0.00999999977648 -0.20000000298023 0
v 0.00499999988824 -0.22499999403954 0
# 62 vertices

vn 1 0 0
vn -1 0 0
vn -0.8660404086113 -0.4999740421772 0
vn 0.8660404086113 -0.4999740421772 0
vn 0.8660404086113 0.4999740421772 0
vn -0.86601907014847 0.50001102685928 0
vn 0 0 1
vn 0 -1 0
vn 0 0 0
vn 0 0 -1
vn 0 1 0
vn 0.70014250278473 0.14000350236893 0.70014250278473
vn 0.70014250278473 0.14000350236893 -0.70014250278473
vn -0.70014250278473 0.14000350236893 -0.70014250278473
vn -0.70014250278473 0.14000350236893 0.70014250278473
vn -0.70014250278473 -0.14000350236893 0.70014250278473
vn -0.70014250278473 -0.14000350236893 -0.70014250278473
vn 0.70014250278473 -0.14000350236893 -0.70014250278473
vn 0.70014250278473 -0.14000350236893 0.70014250278473
# 19 normals

vt 0 0 0
vt 0 1 0
vt 1 1 0
vt 1 0 0
vt 0 0.5 0
vt 0 0.30000007152557 0
vt 0.09622503817081 0.30000007152557 0
vt 0.09622503817081 0.5 0
vt 0.09622503817081 0.69999998807907 0
vt 0 0.69999998807907 0
vt 0.40377494692802 0.5 0
vt 0.40377494692802 0.30000007152557 0
vt 0.5 0.30000007152557 0
vt 0.5 0.5 0
vt 0.5 0.69999998807907 0
vt 0.40377494692802 0.69999998807907 0
vt 0.59622502326965 0.30000007152557 0
vt 0.59622502326965 0.5 0
vt 0.59622502326965 0.69999998807907 0
vt 0.9037749171257 0.5 0
vt 0.9037749171257 0.30000007152557 0
vt 1 0.30000007152557 0
vt 1 0.5 0
vt 1 0.69999998807907 0
vt 0.9037749171257 0.69999998807907 0
vt 0.30000001192093 0.5 0
vt 0.35773503780365 0 0
vt 0.35773503780365 1 0
vt 0.64226496219635 1 0
vt 0.64226496219635 0.5 0
vt 0.64226496219635 0 0
vt 0.69999992847443 0.5 0
vt 0.35773503780365 0.5 0
vt 0.5 1 0
vt 0 0.25 0
vt 0.25 0.25 0
vt 0.25 0 0
vt 0.25 0.5 0
vt 0 0.75 0
vt 0.25 0.75 0
vt 0.25 1 0
vt 0.5 0.25 0
vt 0.5 0 0
vt 0.5 0.75 0
vt 0.75 0.25 0
vt 0.75 0 0
vt 0.75 0.5 0
vt 0.75 0.75 0
vt 0.75 1 0
vt 1 0.25 0
vt 1 0.75 0
# 51 texture coordinates

o Cube
usemtl Mat.2
f 5/4/1 6/3/1 4/2/1 3/1/1
f 1/4/2 2/3/2 8/2/2 7/1/2
f 14/8/3 13/7/3 12/6/3 25/5/3
f 11/10/3 9/9/3 14/8/3 25/5/3
f 26/14/4 15/13/4 23/12/4 21/11/4
f 26/14/4 21/11/4 19/16/4 17/15/4
f 16/18/5 22/17/5 15/13/5 26/14/5
f 17/15/5 10/19/5 16/18/5 26/14/5
f 25/23/6 12/22/6 24/21/6 18/20/6
f 25/23/6 18/20/6 20/25/6 11/24/6
f 17/26/7 19/28/7 2/2/7 1/1/7 10/27/7
f 18/30/9 24/31/8 5/4/8 3/3/8 20/29/8
f 11/32/7 20/31/7 3/4/7 4/3/7 9/29/7
f 10/28/9 1/2/8 7/1/8 22/27/8 16/33/8
f 15/32/10 22/31/10 7/4/10 8/3/10 23/29/10
f 21/33/11 23/28/11 8/2/11 2/1/11 19/27/11
f 12/26/10 13/28/10 6/2/10 5/1/10 24/27/10
f 9/31/9 4/4/11 6/3/11 13/29/11 14/30/11
f 33/34/8 28/5/8 27/14/8
f 33/37/12 34/36/12 29/35/12 28/1/12
f 34/36/12 35/38/12 30/5/12 29/35/12
f 35/38/12 36/40/12 31/39/12 30/5/12
f 36/40/12 32/41/12 32/2/12 31/39/12
f 37/23/8 33/34/8 27/14/8
f 37/43/13 38/42/13 34/36/13 33/37/13
f 38/42/13 39/14/13 35/38/13 34/36/13
f 39/14/13 40/44/13 36/40/13 35/38/13
f 40/44/13 32/34/13 32/41/13 36/40/13
f 41/43/8 37/23/8 27/14/8
f 41/46/14 42/45/14 38/42/14 37/43/14
f 42/45/14 43/47/14 39/14/14 38/42/14
f 43/47/14 44/48/14 40/44/14 39/14/14
f 44/48/14 32/49/14 32/34/14 40/44/14
f 28/5/8 41/43/8 27/14/8
f 28/4/15 29/50/15 42/45/15 41/46/15
f 29/50/15 30/23/15 43/47/15 42/45/15
f 30/23/15 31/51/15 44/48/15 43/47/15
f 31/51/15 32/3/15 32/49/15 44/48/15
f 51/34/11 46/5/11 45/14/11
f 51/37/16 52/36/16 47/35/16 46/1/16
f 52/36/16 53/38/16 48/5/16 47/35/16
f 53/38/16 54/40/16 49/39/16 48/5/16
f 54/40/16 50/41/16 50/2/16 49/39/16
f 55/23/11 51/34/11 45/14/11
f 55/43/17 56/42/17 52/36/17 51/37/17
f 56/42/17 57/14/17 53/38/17 52/36/17
f 57/14/17 58/44/17 54/40/17 53/38/17
f 58/44/17 50/34/17 50/41/17 54/40/17
f 59/43/11 55/23/11 45/14/11
f 59/46/18 60/45/18 56/42/18 55/43/18
f 60/45/18 61/47/18 57/14/18 56/42/18
f 61/47/18 62/48/18 58/44/18 57/14/18
f 62/48/18 50/49/18 50/34/18 58/44/18
f 46/5/11 59/43/11 45/14/11
f 46/4/19 47/50/19 60/45/19 59/46/19
f 47/50/19 48/23/19 61/47/19 60/45/19
f 48/23/19 49/51/19 62/48/19 61/47/19
f 49/51/19 50/3/19 50/49/19 62/48/19

v -0.05693528428674 -0.0986148044467 0.07895246893167
v 0.0182401239872 0.03159281983972 0.13367569446564
v 0.06039188429713 -0.12167235463858 -0.02736161090434
v 0.13556729257107 0.0085352724418 0.02736161090434
v -0.0182401239872 -0.03159281983972 -0.13367569446564
v 0.05693528428674 0.0986148044467 -0.07895246893167
v -0.13556729257107 -0.0085352724418 -0.02736161090434
v -0.06039188429713 0.12167235463858 0.02736161090434
# 8 vertices

vn 0.49145671725273 -0.56299078464508 0.6644634604454
vn 0.73330265283585 -0.14409796893597 -0.66445690393448
vn -0.49145671725273 0.56299078464508 -0.6644634604454
vn -0.73330265283585 0.14409796893597 0.66445690393448
vn 0.4698538184166 0.81379872560501 0.3420073390007
vn -0.4698538184166 -0.81379872560501 -0.3420073390007
# 6 normals

# 0 texture coordinate

o Cube.1
usemtl Mat
f 65/4/20 66/3/20 64/2/20 63/1/20
f 67/4/21 68/3/21 66/2/21 65/1/21
f 69/4/22 70/3/22 68/2/22 67/1/22
f 63/3/23 64/2/23 70/1/23 69/4/23
f 66/3/24 68/2/24 70/1/24 64/4/24
f 67/4/25 65/3/25 63/2/25 69/1/25

